<svg width="128" height="40" viewBox="0 0 128 40" fill="none" xmlns="http://www.w3.org/2000/svg">
<g clip-path="url(#clip0_3152_4558)">
<path d="M95.9431 38.6915C96.3656 38.6915 96.7007 38.4879 96.8893 38.1577H96.8978V38.642H97.3653V34.6716H96.8753V36.2455H96.8639C96.6894 35.9318 96.3514 35.7309 95.9318 35.7309C95.194 35.7309 94.6899 36.3142 94.6899 37.2113C94.6899 38.1082 95.1968 38.6915 95.9431 38.6915ZM96.036 36.1519C96.5401 36.1519 96.8781 36.5729 96.8781 37.2113C96.8781 37.8524 96.5401 38.2705 96.036 38.2705C95.5178 38.2705 95.1912 37.8605 95.1912 37.2113C95.1912 36.5646 95.5178 36.1519 96.036 36.1519ZM98.0524 38.642H98.5424V35.7804H98.0524V38.642ZM98.2974 35.2989C98.4664 35.2989 98.6044 35.1641 98.6044 35.0018C98.6044 34.8367 98.4664 34.7046 98.2974 34.7046C98.1313 34.7046 97.9933 34.8367 97.9933 35.0018C97.9933 35.1641 98.1313 35.2989 98.2974 35.2989ZM100.395 38.243C99.8913 38.243 99.5618 37.8413 99.5618 37.2003C99.5618 36.5592 99.8913 36.1519 100.395 36.1519C100.905 36.1519 101.246 36.5701 101.246 37.2003C101.246 37.8303 100.905 38.243 100.395 38.243ZM100.412 39.7206C101.221 39.7206 101.736 39.2666 101.736 38.5842V35.7804H101.268V36.262H101.26C101.066 35.929 100.722 35.7309 100.308 35.7309C99.5505 35.7309 99.0605 36.3032 99.0605 37.2003C99.0605 38.0889 99.5505 38.664 100.297 38.664C100.708 38.664 101.054 38.4604 101.235 38.1495H101.246V38.6008C101.246 39.0272 100.939 39.3134 100.432 39.3134C100.066 39.3134 99.7758 39.14 99.6802 38.8787H99.176C99.2576 39.3657 99.7674 39.7206 100.412 39.7206ZM102.401 38.642H102.891V35.7804H102.401V38.642ZM102.646 35.2989C102.814 35.2989 102.952 35.1641 102.952 35.0018C102.952 34.8367 102.814 34.7046 102.646 34.7046C102.479 34.7046 102.341 34.8367 102.341 35.0018C102.341 35.1641 102.479 35.2989 102.646 35.2989ZM103.71 35.0898V35.7804H103.274V36.1739H103.71V37.899C103.71 38.4494 103.918 38.664 104.456 38.664C104.572 38.664 104.707 38.6557 104.766 38.642V38.2403C104.732 38.2458 104.62 38.2541 104.563 38.2541C104.313 38.2541 104.2 38.1357 104.2 37.8743V36.1739H104.769V35.7804H104.2V35.0898H103.71ZM106.202 38.2843C105.85 38.2843 105.617 38.1055 105.617 37.8331C105.617 37.5634 105.842 37.3929 106.236 37.3681L107.019 37.3213V37.5552C107.019 37.9679 106.664 38.2843 106.202 38.2843ZM106.092 38.6915C106.487 38.6915 106.858 38.4769 107.033 38.1495H107.044V38.642H107.509V36.6637C107.509 36.0941 107.075 35.7309 106.388 35.7309C105.695 35.7309 105.262 36.1106 105.228 36.606H105.701C105.763 36.3252 106 36.1519 106.377 36.1519C106.782 36.1519 107.019 36.361 107.019 36.7104V36.9498L106.18 36.9966C105.504 37.0351 105.118 37.3432 105.118 37.8331C105.118 38.3476 105.51 38.6915 106.092 38.6915ZM108.157 38.642H108.647V34.6716H108.157V38.642ZM111.457 38.2843C111.105 38.2843 110.871 38.1055 110.871 37.8331C110.871 37.5634 111.097 37.3929 111.491 37.3681L112.274 37.3213V37.5552C112.274 37.9679 111.919 38.2843 111.457 38.2843ZM111.347 38.6915C111.742 38.6915 112.113 38.4769 112.288 38.1495H112.299V38.642H112.764V36.6637C112.764 36.0941 112.33 35.7309 111.643 35.7309C110.95 35.7309 110.517 36.1106 110.483 36.606H110.956C111.018 36.3252 111.254 36.1519 111.632 36.1519C112.037 36.1519 112.274 36.361 112.274 36.7104V36.9498L111.435 36.9966C110.759 37.0351 110.373 37.3432 110.373 37.8331C110.373 38.3476 110.764 38.6915 111.347 38.6915ZM114.577 38.243C114.073 38.243 113.744 37.8413 113.744 37.2003C113.744 36.5592 114.073 36.1519 114.577 36.1519C115.087 36.1519 115.428 36.5701 115.428 37.2003C115.428 37.8303 115.087 38.243 114.577 38.243ZM114.594 39.7206C115.403 39.7206 115.918 39.2666 115.918 38.5842V35.7804H115.45V36.262H115.442C115.248 35.929 114.904 35.7309 114.49 35.7309C113.733 35.7309 113.243 36.3032 113.243 37.2003C113.243 38.0889 113.733 38.664 114.479 38.664C114.89 38.664 115.236 38.4604 115.417 38.1495H115.428V38.6008C115.428 39.0272 115.121 39.3134 114.614 39.3134C114.248 39.3134 113.958 39.14 113.862 38.8787H113.358C113.44 39.3657 113.949 39.7206 114.594 39.7206ZM117.732 36.1464C118.193 36.1464 118.5 36.4876 118.512 36.9663H116.92C116.951 36.4903 117.273 36.1464 117.732 36.1464ZM118.5 37.822C118.419 38.0918 118.146 38.2761 117.774 38.2761C117.247 38.2761 116.918 37.9156 116.918 37.3681V37.3405H119.019V37.1589C119.019 36.2922 118.531 35.7309 117.74 35.7309C116.932 35.7309 116.414 36.3335 116.414 37.2222C116.414 38.122 116.923 38.6915 117.763 38.6915C118.402 38.6915 118.897 38.3229 118.982 37.822H118.5ZM119.514 38.642H120.004V36.958C120.004 36.4739 120.305 36.1546 120.767 36.1546C121.218 36.1546 121.44 36.4078 121.44 36.87V38.642H121.93V36.7847C121.93 36.1353 121.559 35.7309 120.917 35.7309C120.463 35.7309 120.151 35.929 119.987 36.2372H119.976V35.7804H119.514V38.642ZM124.989 36.7187C124.927 36.2042 124.49 35.7309 123.758 35.7309C122.95 35.7309 122.412 36.3088 122.412 37.2113C122.412 38.133 122.953 38.6915 123.764 38.6915C124.428 38.6915 124.918 38.2898 124.994 37.7203H124.513C124.428 38.0642 124.166 38.2705 123.767 38.2705C123.26 38.2705 122.91 37.8771 122.91 37.2113C122.91 36.5619 123.254 36.1519 123.761 36.1519C124.192 36.1519 124.44 36.4078 124.51 36.7187H124.989ZM125.687 39.7124C126.217 39.7124 126.458 39.5115 126.71 38.8429L127.861 35.7804H127.345L126.534 38.1632H126.527L125.715 35.7804H125.191L126.273 38.6447L126.205 38.8456C126.093 39.1785 125.941 39.3078 125.667 39.3078C125.606 39.3078 125.529 39.3051 125.476 39.2941V39.6958C125.529 39.7068 125.628 39.7124 125.687 39.7124Z" fill="white"/>
<path d="M47.0049 32.0351H51.8016V21.6278C51.8016 19.6975 53.0336 18.3463 54.8569 18.3463C56.6311 18.3463 57.6988 19.4401 57.6988 21.29V32.0351H62.3147V21.5635C62.3147 19.6493 63.5139 18.3463 65.3372 18.3463C67.1934 18.3463 68.2119 19.4401 68.2119 21.4348V32.0351H73.0085V20.2605C73.0085 16.7861 70.6924 14.4698 67.2427 14.4698C64.6638 14.4698 62.5612 15.837 61.7727 18.0086H61.674C61.0828 15.7565 59.3086 14.4698 56.7624 14.4698C54.3641 14.4698 52.4751 15.837 51.7359 17.9121H51.6373V14.7915H47.0049V32.0351ZM82.8482 28.9144C81.222 28.9144 80.1377 28.1103 80.1377 26.8235C80.1377 25.6009 81.1562 24.8127 82.9467 24.6841L86.6592 24.4589V25.7135C86.6592 27.5794 84.9344 28.9144 82.8482 28.9144ZM81.2713 32.3085C83.4724 32.3085 85.6572 31.2309 86.6429 29.3972H86.7414V32.0351H91.3737V20.1801C91.3737 16.7056 88.4334 14.4215 83.916 14.4215C79.2507 14.4215 76.3432 16.7217 76.1624 20.0675H80.5485C80.7784 18.7968 81.9119 17.9282 83.7024 17.9282C85.5093 17.9282 86.6592 18.8611 86.6592 20.4696V21.6117L82.224 21.869C77.838 22.1264 75.3739 23.9441 75.3739 27.0807C75.3739 30.1853 77.9202 32.3085 81.2713 32.3085ZM99.4558 21.7082H99.3899V8.82373H94.5934V32.0351H99.3899V26.3409L100.638 25.0219L105.681 32.0351H111.201L104.154 22.1907L110.872 14.7915H105.435L99.4558 21.7082ZM119.661 17.8959C121.796 17.8959 123.258 19.408 123.357 21.6117H115.882C116.047 19.4563 117.558 17.8959 119.661 17.8959ZM123.422 26.7591C122.979 28.078 121.632 28.9306 119.874 28.9306C117.427 28.9306 115.833 27.2416 115.833 24.7805V24.491H127.972V23.0594C127.972 17.8156 124.736 14.4215 119.611 14.4215C114.404 14.4215 111.119 17.9925 111.119 23.4937C111.119 29.011 114.371 32.4051 119.792 32.4051C124.145 32.4051 127.299 30.137 127.824 26.7591H123.422Z" fill="white"/>
<path fill-rule="evenodd" clip-rule="evenodd" d="M115.617 0H124.841C125.958 0 126.863 0.884376 126.863 1.97531V8.88889C126.863 9.97982 125.958 10.8642 124.841 10.8642H115.617C114.5 10.8642 113.595 9.97982 113.595 8.88889V1.97531C113.595 0.884376 114.5 0 115.617 0ZM117.713 6.99745C117.713 7.24234 117.51 7.44044 117.259 7.44044C117.006 7.44044 116.806 7.24234 116.806 6.99745C116.806 6.74982 117.006 6.55446 117.259 6.55446C117.51 6.55446 117.713 6.74982 117.713 6.99745ZM119.171 5.64097H119.183L120.208 4.45782H121.14L119.988 5.72351L121.196 7.40743H120.25L119.386 6.20777L119.171 6.4334V7.40743H118.349V3.43702H119.171V5.64097ZM123.869 7.40743H121.377V6.95067L122.88 5.08792V5.07141H121.399V4.45782H123.835V4.96685L122.421 6.77734V6.79109H123.869V7.40743Z" fill="white"/>
<path d="M25.9118 14.5699H21.1887L18.5155 27.4386H18.4171L15.2847 14.5699H10.6928L7.57674 27.4386H7.47835L4.82157 14.5699H0L4.67397 31.9226H9.70874L12.8739 19.6526H12.9724L16.1539 31.9226H21.2543L25.9118 14.5699ZM35.4074 17.6939C37.5394 17.6939 38.9989 19.2155 39.0974 21.4332H31.6355C31.7993 19.2641 33.3082 17.6939 35.4074 17.6939ZM39.1629 26.6132C38.7202 27.9405 37.3754 28.7984 35.6206 28.7984C33.177 28.7984 31.5862 27.0987 31.5862 24.6221V24.3307H43.7057V22.8901C43.7057 17.6131 40.4749 14.1975 35.3582 14.1975C30.1595 14.1975 26.8794 17.7911 26.8794 23.3271C26.8794 28.8794 30.1266 32.2948 35.5385 32.2948C39.8846 32.2948 43.0333 30.0124 43.5582 26.6132H39.1629Z" fill="white"/>
</g>
<defs>
<clipPath id="clip0_3152_4558">
<rect width="128" height="40" fill="white"/>
</clipPath>
</defs>
</svg>
