<svg width="48" height="32" viewBox="0 0 48 32" fill="none" xmlns="http://www.w3.org/2000/svg">
<g clip-path="url(#clip0_3107_290)">
<rect width="48" height="32" rx="4" fill="#EF7F1A"/>
<path d="M-8.54443 -0.965157V32.9652H56.5447V-0.965157H-8.54443Z" fill="#012169"/>
<path d="M-8.54443 -0.965157L56.5447 32.9652L-8.54443 -0.965157ZM56.5447 -0.965157L-8.54443 32.9652L56.5447 -0.965157Z" fill="black"/>
<path fill-rule="evenodd" clip-rule="evenodd" d="M16.7228 16L-10 2.06965L-7.08913 -4L24 12.2065L55.0891 -4L58 2.06965L31.2772 16L58 29.9304L55.0891 36L24 19.7935L-7.08913 36L-10 29.9304L16.7228 16Z" fill="white"/>
<path d="M-8.54443 -0.965157L56.5447 32.9652L-8.54443 -0.965157ZM56.5447 -0.965157L-8.54443 32.9652L56.5447 -0.965157Z" fill="black"/>
<path fill-rule="evenodd" clip-rule="evenodd" d="M19.1488 16L-9.51465 1.05803L-7.57407 -2.9884L24.0002 13.471L55.5745 -2.9884L57.5151 1.05803L28.8517 16L57.5151 30.942L55.5745 34.9884L24.0002 18.529L-7.57407 34.9884L-9.51465 30.942L19.1488 16Z" fill="#C8102E"/>
<path d="M24.0001 -0.965157V32.9652V-0.965157ZM-8.54443 16H56.5447H-8.54443Z" fill="black"/>
<path fill-rule="evenodd" clip-rule="evenodd" d="M18.576 10.345V-0.965157H29.4242V10.345H56.5447V21.6551H29.4242V32.9652H18.576V21.6551H-8.54443V10.345H18.576Z" fill="white"/>
<path d="M24.0001 -0.965157V32.9652V-0.965157ZM-8.54443 16H56.5447H-8.54443Z" fill="black"/>
<path fill-rule="evenodd" clip-rule="evenodd" d="M20.7457 12.607V-0.965157H27.2546V12.607H56.5447V19.3931H27.2546V32.9652H20.7457V19.3931H-8.54443V12.607H20.7457Z" fill="#C8102E"/>
</g>
<defs>
<clipPath id="clip0_3107_290">
<rect width="48" height="32" rx="4" fill="white"/>
</clipPath>
</defs>
</svg>
