<svg width="230" height="50" viewBox="0 0 230 50" fill="none" xmlns="http://www.w3.org/2000/svg">
<path fill-rule="evenodd" clip-rule="evenodd" d="M-2.27325e-05 47.2362L18.405 14.5217L29.8696 17.5873L-2.27325e-05 47.2362Z" fill="#C5C6C6"/>
<path fill-rule="evenodd" clip-rule="evenodd" d="M2.5885 49.2445L52.2436 0.587584L67.3896 15.4782L2.5885 49.2445Z" fill="white"/>
<path fill-rule="evenodd" clip-rule="evenodd" d="M105.478 38.7226C67.9243 35.1726 35.5734 39.3398 7.47744 49.8187L82.2482 12.3213C89.9917 21.1219 97.7348 29.9226 105.478 38.7226Z" fill="#EF7F1A"/>
<path d="M123.343 37.1441V0.809054H151.986V4.98826H127.869V15.6395H142.461V19.8187H127.869V32.9643H153.472V37.1441H123.343ZM170.884 37.1441V4.98826H155.549V0.809054H190.745V4.98826H175.41V37.1441H170.884V37.1441ZM226.069 25.5488L229.718 28.2454C228.051 31.4025 225.754 33.8406 222.849 35.5373C219.955 37.2334 216.657 38.0875 212.953 38.0875C207.503 38.0875 202.999 36.29 199.441 32.7058C195.894 29.1216 194.116 24.5712 194.116 19.0551C194.116 13.5271 195.894 8.96586 199.453 5.38168C203.022 1.79749 207.514 6.01154e-07 212.941 6.01154e-07C216.308 6.01154e-07 219.381 0.730475 222.151 2.2023C224.921 3.67412 227.173 5.77454 228.907 8.49384L225.112 11.1904C223.975 9.0217 222.32 7.3141 220.169 6.08939C218.019 4.86467 215.61 4.24689 212.953 4.24689C208.866 4.24689 205.476 5.65153 202.796 8.44886C200.117 11.2462 198.777 14.7854 198.777 19.0551C198.777 23.3357 200.117 26.8749 202.796 29.6614C205.476 32.4473 208.866 33.8406 212.953 33.8406C215.812 33.8406 218.346 33.1328 220.564 31.7282C222.782 30.3241 224.617 28.2681 226.069 25.5488V25.5488Z" fill="white"/>
<path d="M123.262 49.8905V45.6707H126.588V46.1563H123.787V47.3929H125.482V47.8784H123.787V49.405H126.761V49.8905H123.262V49.8905ZM129.346 49.8905V45.6707H129.872V49.405H132.633V49.8905H129.346V49.8905ZM135.079 49.8905V45.6474H135.612V49.8905H135.079ZM138.283 49.2549L138.589 48.8023C138.888 49.0332 139.199 49.2094 139.522 49.3318C139.845 49.4532 140.166 49.5145 140.482 49.5145C140.873 49.5145 141.191 49.4326 141.434 49.2668C141.678 49.101 141.8 48.8886 141.8 48.629C141.8 48.4225 141.712 48.2529 141.538 48.1196C141.362 47.9868 141.12 47.9071 140.811 47.8811C140.737 47.873 140.63 47.8654 140.49 47.8589C139.794 47.8091 139.321 47.7283 139.067 47.6134C138.871 47.5181 138.721 47.3972 138.619 47.2482C138.517 47.0981 138.466 46.9312 138.466 46.7447C138.466 46.4055 138.618 46.1259 138.922 45.9059C139.226 45.6864 139.621 45.5769 140.106 45.5769C140.458 45.5769 140.807 45.6344 141.15 45.7504C141.494 45.8663 141.821 46.0386 142.129 46.2657L141.824 46.7041C141.562 46.4938 141.289 46.3361 141.001 46.2294C140.714 46.1232 140.418 46.07 140.115 46.07C139.795 46.07 139.533 46.1329 139.325 46.2565C139.118 46.3806 139.015 46.5355 139.015 46.7225C139.015 46.7957 139.032 46.8634 139.064 46.9247C139.098 46.9859 139.15 47.0444 139.218 47.0981C139.391 47.2276 139.767 47.3111 140.345 47.3463C140.61 47.3615 140.817 47.3777 140.962 47.3956C141.391 47.4438 141.731 47.5809 141.982 47.808C142.232 48.035 142.357 48.313 142.357 48.6447C142.357 49.0387 142.186 49.3632 141.842 49.6174C141.498 49.8721 141.047 50 140.49 50C140.069 50 139.676 49.9388 139.316 49.8174C138.954 49.6949 138.609 49.5079 138.283 49.2549V49.2549ZM145.764 48.2621H147.626L146.691 46.3936L145.764 48.2621V48.2621ZM144.4 49.8905L146.472 45.6707H146.909L149.005 49.8905H148.434L147.86 48.7552H145.523L144.963 49.8905H144.4ZM154.799 49.8905V46.1563H153.018V45.6707H157.106V46.1563H155.325V49.8905H154.799ZM159.638 47.5495H161.505C161.771 47.5495 161.971 47.491 162.108 47.3734C162.245 47.2574 162.313 47.085 162.313 46.858C162.313 46.6374 162.245 46.4641 162.108 46.3416C161.971 46.2175 161.78 46.1563 161.531 46.1563H159.638V47.5495V47.5495ZM159.112 49.8905V45.6707H161.539C161.952 45.6707 162.275 45.7753 162.511 45.9828C162.744 46.1898 162.862 46.477 162.862 46.8439C162.862 47.149 162.771 47.4102 162.588 47.628C162.403 47.8459 162.162 47.9814 161.861 48.035L162.917 49.8905H162.336L161.279 48.0426H159.638V49.8905H159.112V49.8905ZM166.072 48.2621H167.933L166.998 46.3936L166.072 48.2621V48.2621ZM164.707 49.8905L166.78 45.6707H167.217L169.313 49.8905H168.741L168.167 48.7552H165.83L165.271 49.8905H164.707V49.8905ZM173.571 46.1563H172.283V49.405H173.571C174.091 49.405 174.502 49.2587 174.8 48.9682C175.099 48.6756 175.248 48.2816 175.248 47.7847C175.248 47.2953 175.096 46.9014 174.792 46.6033C174.489 46.3047 174.081 46.1563 173.571 46.1563V46.1563ZM173.571 45.6707C174.236 45.6707 174.772 45.8663 175.179 46.2592C175.586 46.6521 175.79 47.162 175.79 47.7922C175.79 48.4263 175.589 48.9352 175.189 49.3177C174.788 49.6998 174.249 49.8905 173.571 49.8905H171.757V45.6707H173.571V45.6707ZM178.516 49.8905V45.6707H181.843V46.1563H179.042V47.3929H180.736V47.8784H179.042V49.405H182.015V49.8905H178.516V49.8905ZM190.587 48.5439L191.01 48.8571C190.817 49.224 190.55 49.5069 190.212 49.7041C189.876 49.9008 189.493 50 189.063 50C188.43 50 187.907 49.7914 187.494 49.3752C187.082 48.959 186.876 48.4306 186.876 47.7896C186.876 47.1479 187.082 46.618 187.495 46.2018C187.91 45.7856 188.432 45.5769 189.062 45.5769C189.453 45.5769 189.81 45.6615 190.131 45.8327C190.453 46.0034 190.715 46.2473 190.916 46.5632L190.475 46.8765C190.343 46.6245 190.151 46.4261 189.901 46.2841C189.651 46.1416 189.372 46.07 189.063 46.07C188.589 46.07 188.195 46.2332 187.884 46.5578C187.573 46.8829 187.417 47.2937 187.417 47.7896C187.417 48.287 187.573 48.6978 187.884 49.0213C188.195 49.3448 188.589 49.5068 189.063 49.5068C189.395 49.5068 189.689 49.4245 189.947 49.2614C190.205 49.0983 190.418 48.8598 190.587 48.5439V48.5439ZM195.606 49.5068C196.08 49.5068 196.473 49.3448 196.786 49.0213C197.097 48.6978 197.253 48.287 197.253 47.7896C197.253 47.291 197.097 46.8791 196.787 46.5551C196.477 46.2315 196.083 46.07 195.606 46.07C195.131 46.07 194.737 46.2332 194.424 46.5578C194.113 46.8829 193.958 47.2937 193.958 47.7896C193.958 48.287 194.113 48.6978 194.424 49.0213C194.737 49.3448 195.131 49.5068 195.606 49.5068V49.5068ZM195.604 50C194.97 50 194.447 49.7914 194.035 49.3752C193.623 48.959 193.417 48.4306 193.417 47.7896C193.417 47.1479 193.623 46.618 194.037 46.2018C194.45 45.7856 194.972 45.5769 195.604 45.5769C196.237 45.5769 196.761 45.7856 197.178 46.2045C197.594 46.6217 197.802 47.1506 197.802 47.7896C197.802 48.4306 197.594 48.959 197.18 49.3752C196.765 49.7914 196.239 50 195.604 50ZM200.505 49.8905V45.6707H200.992L202.702 48.254L204.42 45.6707H204.898V49.8905H204.381V46.5957L202.702 49.0918L201.023 46.5957V49.8905H200.505V49.8905ZM208.441 47.5495H210.309C210.574 47.5495 210.775 47.491 210.911 47.3734C211.049 47.2574 211.117 47.085 211.117 46.858C211.117 46.6374 211.049 46.4641 210.911 46.3416C210.775 46.2175 210.583 46.1563 210.335 46.1563H208.441V47.5495V47.5495ZM207.916 49.8905V45.6707H210.343C210.753 45.6707 211.076 45.7726 211.312 45.9758C211.548 46.1796 211.666 46.4586 211.666 46.8125C211.666 47.1793 211.552 47.4763 211.323 47.7023C211.096 47.9293 210.791 48.0426 210.412 48.0426H208.441V49.8905H207.916ZM214.386 48.2621H216.247L215.313 46.3936L214.386 48.2621V48.2621ZM213.022 49.8905L215.095 45.6707H215.531L217.627 49.8905H217.056L216.482 48.7552H214.145L213.585 49.8905H213.022V49.8905ZM220.071 49.8905V45.6707H220.347L223.092 48.8246V45.6707H223.617V49.8905H223.35L220.597 46.7366V49.8905H220.071ZM227.56 49.8905V47.7765L225.654 45.6707H226.314L227.828 47.3371L229.333 45.6707H230L228.086 47.7847V49.8905H227.56V49.8905Z" fill="white"/>
</svg>
