<svg width="32" height="32" viewBox="0 0 32 32" fill="none" xmlns="http://www.w3.org/2000/svg">
<g clip-path="url(#clip0_3204_4418)">
<path d="M31.9999 14.6599L31.9998 4.3205C31.9999 1.93812 30.0617 0 27.6793 0H17.3401C17.1632 0 16.9937 0.07025 16.8687 0.19525L14.8477 2.21631C14.5021 2.18756 14.1534 2.16431 13.8021 2.14731C9.35543 1.93194 5.561 2.70756 4.1355 4.12319C3.56444 4.69038 3.46325 5.26062 3.47881 5.639C3.53531 7.00412 5.16869 8.232 7.99862 9.06531L1.26106 15.8029C0.447874 16.6161 6.10352e-05 17.7011 6.10352e-05 18.858C6.10352e-05 20.0149 0.447936 21.0999 1.26106 21.9129L10.0147 30.6667H9.33337C8.96525 30.6667 8.66669 30.9651 8.66669 31.3334C8.66669 31.7015 8.96519 32.0001 9.33337 32.0001H22.6666C23.0347 32.0001 23.3332 31.7016 23.3332 31.3334C23.3332 30.9652 23.0347 30.6667 22.6666 30.6667H16.2693L31.8046 15.1314C31.9297 15.0063 31.9999 14.8367 31.9999 14.6599ZM4.81106 5.58388C4.80862 5.52394 4.80106 5.34138 5.07512 5.06919C5.99437 4.15625 9.04619 3.27494 13.591 3.473L9.08487 7.97913C5.99344 7.20138 4.83344 6.12444 4.81106 5.58388ZM15.2542 29.7961C14.6929 30.3574 13.9427 30.6666 13.142 30.6666C12.3412 30.6666 11.5911 30.3575 11.0298 29.7961L2.20381 20.9701C1.64244 20.4088 1.33325 19.6587 1.33325 18.8579C1.33325 18.0571 1.64244 17.307 2.20381 16.7457L15.347 3.60262C17.2761 3.80437 19.0571 4.19244 20.4752 4.72888C21.4158 5.08469 22.0501 5.45213 22.4481 5.78275C21.9676 6.26531 21.6701 6.93019 21.6701 7.66344C21.6701 7.87025 21.6945 8.07144 21.7393 8.26481C21.7423 8.28119 21.7463 8.29744 21.7506 8.31363C21.7523 8.32056 21.7539 8.32756 21.7557 8.3345C21.7558 8.33506 21.756 8.33563 21.7562 8.33613C22.0551 9.48188 23.0986 10.33 24.3367 10.33C25.807 10.33 27.0032 9.13381 27.0032 7.66337C27.0032 6.19294 25.8071 4.99662 24.3367 4.99662C24.1002 4.99662 23.8709 5.02794 23.6525 5.086C23.0878 4.48937 22.1786 3.94763 20.9469 3.48175C19.6915 3.00688 18.1799 2.64138 16.5421 2.4075L17.6162 1.33337H27.6792C29.3264 1.33337 30.6664 2.67344 30.6664 4.32056L30.6666 14.3837L15.2542 29.7961ZM24.3319 6.52881C24.3291 6.46256 24.3223 6.39675 24.3124 6.33119C24.3206 6.33106 24.3285 6.32994 24.3367 6.32994C25.0718 6.32994 25.6699 6.92812 25.6699 7.66331C25.6699 8.39844 25.0718 8.99656 24.3367 8.99656C23.8782 8.99656 23.4731 8.76388 23.2331 8.41044C24.1627 7.74994 24.3529 7.03994 24.3319 6.52881Z" fill="#EF7F1A"/>
<path d="M28.5906 5.63311C28.2393 5.74317 28.0437 6.11723 28.1537 6.46854C28.2749 6.85554 28.3364 7.25748 28.3364 7.66329C28.3364 9.86886 26.5422 11.6631 24.3367 11.6631C22.1311 11.6631 20.3368 9.86886 20.3368 7.66329C20.3368 7.29511 20.0384 6.99661 19.6701 6.99661C19.3019 6.99661 19.0034 7.29504 19.0034 7.66329C19.0034 10.604 21.3959 12.9964 24.3366 12.9964C27.2772 12.9964 29.6697 10.604 29.6697 7.66329C29.6697 7.12217 29.5877 6.58604 29.426 6.06998C29.316 5.71861 28.9419 5.52298 28.5906 5.63311Z" fill="#EF7F1A"/>
<path d="M27.7026 5.09763C27.8686 5.09763 28.035 5.03588 28.1644 4.91169C28.4298 4.65663 28.4383 4.23463 28.1832 3.96907C28.0739 3.85513 27.9588 3.74544 27.8412 3.64313C27.5634 3.40132 27.1424 3.43051 26.9006 3.70819C26.6588 3.98588 26.6879 4.40694 26.9657 4.64876C27.0535 4.72519 27.1396 4.80738 27.2217 4.89276C27.3526 5.02907 27.5274 5.09763 27.7026 5.09763Z" fill="#EF7F1A"/>
<path d="M19.4508 20.4971C19.5737 20.3247 19.6837 20.1474 19.7772 19.9678C20.3743 18.821 20.2643 17.4141 19.4968 16.3836C18.8021 15.4508 17.7272 15.0205 16.6214 15.2326C15.8298 15.3844 15.075 15.8127 14.3451 16.2269C14.1774 16.322 14.0191 16.4119 13.8598 16.4989C12.8838 17.0314 11.952 17.0691 11.3671 16.5994C10.8844 16.2118 10.7238 15.5402 10.9372 14.8029C10.9989 14.5901 11.1083 14.3824 11.2524 14.1843L12.3551 15.2871C12.4853 15.4173 12.6559 15.4824 12.8266 15.4824C12.9972 15.4824 13.1677 15.4173 13.2979 15.2871C13.5582 15.0269 13.5583 14.6048 13.2979 14.3443L12.2345 13.2808C12.7144 12.9634 13.2607 12.7217 13.7661 12.5976C14.1236 12.5097 14.3422 12.1486 14.2543 11.7909C14.1663 11.4334 13.8053 11.2147 13.4476 11.3028C12.7364 11.4776 11.9513 11.8263 11.2724 12.3184L10.7629 11.809C10.5027 11.5488 10.0806 11.5487 9.82013 11.809C9.55975 12.0693 9.55975 12.4914 9.82007 12.7518L10.2992 13.231C10.0089 13.5923 9.78319 13.9942 9.65638 14.432C9.29357 15.6851 9.62913 16.9139 10.5323 17.6391C11.5511 18.4571 13.0338 18.4684 14.4984 17.6693C14.5496 17.6413 14.6008 17.6124 14.6521 17.584L17.6001 20.5319C16.9591 21.0358 16.2315 21.2823 15.7792 21.1391C15.4281 21.0278 15.0535 21.2223 14.9423 21.5734C14.8311 21.9244 15.0256 22.2991 15.3766 22.4102C15.6013 22.4813 15.8344 22.5145 16.0715 22.5145C16.9158 22.5144 17.8095 22.0943 18.5441 21.4759L19.2481 22.1799C19.3783 22.3101 19.5489 22.3752 19.7194 22.3752C19.8901 22.3752 20.0606 22.3101 20.1908 22.1799C20.4511 21.9196 20.4511 21.4976 20.1908 21.2371L19.4508 20.4971ZM18.5946 19.3519C18.5619 19.4147 18.5266 19.476 18.4901 19.5364L15.8692 16.9154C16.2168 16.7423 16.5571 16.6026 16.8726 16.5421C17.4733 16.427 18.0398 16.6594 18.4276 17.18C18.8916 17.8031 18.9571 18.6557 18.5946 19.3519Z" fill="#EF7F1A"/>
<path d="M8.53269 22.7336C8.27244 22.4732 7.85031 22.473 7.58987 22.7333C7.3295 22.9936 7.32944 23.4157 7.58969 23.6762L7.86244 23.9491C7.99262 24.0793 8.16337 24.1445 8.334 24.1445C8.50456 24.1445 8.67512 24.0795 8.80525 23.9493C9.06563 23.6891 9.06581 23.267 8.8055 23.0065L8.53269 22.7336Z" fill="#EF7F1A"/>
<path d="M14.5564 25.929L13.1421 27.3433L10.3137 24.5147C10.0534 24.2544 9.63125 24.2544 9.37087 24.5146C9.1105 24.775 9.1105 25.1971 9.37081 25.4575L12.1994 28.2861C12.4593 28.546 12.8007 28.676 13.1422 28.676C13.4836 28.676 13.8251 28.546 14.0851 28.2861L15.4993 26.8718C15.7596 26.6115 15.7596 26.1894 15.4993 25.929C15.2389 25.6686 14.8167 25.6686 14.5564 25.929Z" fill="#EF7F1A"/>
</g>
<defs>
<clipPath id="clip0_3204_4418">
<rect width="32" height="32" fill="white"/>
</clipPath>
</defs>
</svg>
