<svg width="32" height="32" viewBox="0 0 32 32" fill="none" xmlns="http://www.w3.org/2000/svg">
<path d="M16 22.9812C15.1343 22.9812 14.4301 23.6855 14.4301 24.5511C14.4301 25.4168 15.1343 26.1211 16 26.1211C16.8657 26.1211 17.5699 25.4168 17.5699 24.5511C17.5699 23.6855 16.8657 22.9812 16 22.9812ZM16 25.119C15.6869 25.119 15.4321 24.8643 15.4321 24.5511C15.4321 24.238 15.6869 23.9833 16 23.9833C16.3131 23.9833 16.5679 24.238 16.5679 24.5511C16.5679 24.8643 16.3131 25.119 16 25.119Z" fill="#EF7F1A"/>
<path d="M4.77662 22.9812C3.91093 22.9812 3.20668 23.6855 3.20668 24.5511C3.20668 25.4168 3.91093 26.1211 4.77662 26.1211C5.64231 26.1211 6.34656 25.4168 6.34656 24.5511C6.34656 23.6855 5.64231 22.9812 4.77662 22.9812ZM4.77662 25.119C4.46349 25.119 4.20874 24.8643 4.20874 24.5511C4.20874 24.238 4.46349 23.9833 4.77662 23.9833C5.08974 23.9833 5.34449 24.238 5.34449 24.5511C5.34443 24.8643 5.08974 25.119 4.77662 25.119Z" fill="#EF7F1A"/>
<path d="M31.4989 21.3779H30.9311V16.5344C30.9311 16.2578 30.7068 16.0334 30.43 16.0334H29.3277V12.2589C29.3277 11.9822 29.1034 11.7578 28.8266 11.7578H25.0521V9.58664C25.0521 9.30995 24.8278 9.08557 24.5511 9.08557H23.4822C22.6165 9.08557 21.9123 9.78982 21.9123 10.6555V12.2588C21.9123 12.5355 22.1366 12.7599 22.4133 12.7599C22.6901 12.7599 22.9144 12.5356 22.9144 12.2588V10.6555C22.9144 10.3424 23.1691 10.0876 23.4823 10.0876H24.0501V21.8789C24.0501 22.1556 24.2744 22.3799 24.5512 22.3799H30.9979V22.9478C30.9979 23.2609 30.7432 23.5157 30.4301 23.5157H22.9144V14.3967C22.9144 14.12 22.6901 13.8956 22.4133 13.8956C22.1366 13.8956 21.9123 14.1199 21.9123 14.3967V21.3779H21.311V16.5344C21.311 15.6688 20.6067 14.9645 19.7411 14.9645H15.2865L12.1639 6.04264C11.794 4.9857 10.793 4.27557 9.67325 4.27557H4.77663C3.91094 4.27557 3.20669 4.97982 3.20669 5.84551V14.9645H1.56994C0.70425 14.9645 0 15.6688 0 16.5344V24.0167C0 24.2934 0.224313 24.5178 0.501063 24.5178H1.60425C1.60412 24.5289 1.60337 24.5399 1.60337 24.5511C1.60337 26.3008 3.02694 27.7244 4.77663 27.7244C6.52631 27.7244 7.94987 26.3008 7.94987 24.5511C7.94987 24.5399 7.94912 24.5289 7.949 24.5178H12.8275C12.8274 24.5289 12.8266 24.5399 12.8266 24.5511C12.8266 26.3008 14.2502 27.7244 15.9999 27.7244C17.7496 27.7244 19.1731 26.3008 19.1731 24.5511C19.1731 24.5399 19.1724 24.5289 19.1723 24.5178H30.43C31.2957 24.5178 31.9999 23.8135 31.9999 22.9478V21.8789C32 21.6022 31.7757 21.3779 31.4989 21.3779ZM25.0522 12.7599H28.3257V16.0334H25.0522V12.7599ZM29.929 21.3779H25.0522V17.0355H29.929V21.3779ZM1.77769 23.5157H1.00206V22.38H2.4655C2.16219 22.7027 1.92569 23.0885 1.77769 23.5157ZM4.77663 26.7223C3.57944 26.7223 2.60544 25.7483 2.60544 24.5511C2.60544 23.3539 3.57944 22.3799 4.77663 22.3799C5.97381 22.3799 6.94781 23.3539 6.94781 24.5511C6.94781 25.7483 5.97375 26.7223 4.77663 26.7223ZM5.81213 21.3779V18.1044H10.1211C10.3978 18.1044 10.6222 17.8801 10.6222 17.6033V16.5344C10.6222 15.6688 9.91794 14.9645 9.05225 14.9645H7.94994V12.7933C7.94994 11.9276 7.24569 11.2234 6.38 11.2234H5.81213V6.88101H9.67325C9.68719 6.88101 9.70019 6.89026 9.70481 6.90339L12.032 13.5525L10.6222 12.9885V12.2589C10.6222 11.9822 10.3979 11.7578 10.1211 11.7578C9.84438 11.7578 9.62006 11.9821 9.62006 12.2589V13.3363C9.62006 13.3369 9.62006 13.3374 9.62006 13.3379V14.3967C9.62006 14.6734 9.84438 14.8978 10.1211 14.8978C10.3979 14.8978 10.6222 14.6734 10.6222 14.3967V14.0679L12.4713 14.8075L12.8268 15.8232V21.3779H5.81213V21.3779ZM7.44887 15.9666H9.05219C9.36531 15.9666 9.62006 16.2214 9.62006 16.5345V17.1024H5.81213V12.2256H6.38C6.69313 12.2256 6.94788 12.4803 6.94788 12.7934V15.4657C6.94781 15.7423 7.17212 15.9666 7.44887 15.9666ZM13.0011 23.5157H7.77544C7.6275 23.0885 7.391 22.7028 7.08763 22.38H13.6889C13.3856 22.7027 13.1491 23.0885 13.0011 23.5157ZM16 26.7223C14.8028 26.7223 13.8288 25.7483 13.8288 24.5511C13.8288 23.3539 14.8028 22.3799 16 22.3799C17.1972 22.3799 18.1712 23.3539 18.1712 24.5511C18.1712 25.7483 17.1972 26.7223 16 26.7223ZM13.8288 21.3779V15.7381C13.8288 15.6817 13.8193 15.6258 13.8007 15.5725L10.6507 6.57239C10.5055 6.15764 10.1127 5.87895 9.67331 5.87895H5.31106C5.03437 5.87895 4.81 6.10326 4.81 6.38001V21.3779H1.00206V16.5345C1.00206 16.2214 1.25681 15.9666 1.56994 15.9666H3.70775C3.98444 15.9666 4.20881 15.7423 4.20881 15.4656V5.84551C4.20881 5.53239 4.46356 5.27764 4.77669 5.27764H9.67338C10.3679 5.27764 10.9887 5.71807 11.2182 6.37364L14.4583 15.631C14.5286 15.8319 14.7183 15.9665 14.9312 15.9665H19.7412C20.0543 15.9665 20.3091 16.2213 20.3091 16.5344V21.3779H13.8288ZM21.9123 23.5157H19.0063C19.0038 23.5157 19.0014 23.516 18.9989 23.516C18.851 23.0887 18.6145 22.7028 18.3111 22.3799H21.9123V23.5157Z" fill="#EF7F1A"/>
<path d="M27.2234 13.3612H26.1545C25.8778 13.3612 25.6534 13.5855 25.6534 13.8623C25.6534 14.139 25.8778 14.3633 26.1545 14.3633H27.2234C27.5001 14.3633 27.7244 14.139 27.7244 13.8623C27.7244 13.5855 27.5001 13.3612 27.2234 13.3612Z" fill="#EF7F1A"/>
<path d="M28.2923 18.1712H26.1544C25.8778 18.1712 25.6534 18.3955 25.6534 18.6723C25.6534 18.949 25.8777 19.1733 26.1544 19.1733H28.2923C28.5689 19.1733 28.7933 18.949 28.7933 18.6723C28.7933 18.3955 28.569 18.1712 28.2923 18.1712Z" fill="#EF7F1A"/>
</svg>
