<svg width="716" height="47" viewBox="0 0 716 47" fill="none" xmlns="http://www.w3.org/2000/svg">
<path d="M0.75 46H30.625V38.2188H10.1875V26.875H29.4688V19.5H10.1875V8.6875H30.625V0.90625H0.75V46ZM37.4375 46H66.5938V38.2188H46.875V0.90625H37.4375V46ZM72.1875 46H81.625V0.90625H72.1875V46ZM105.594 46.7812C116.969 46.7812 123.781 41.2812 123.781 32.625V32.5938C123.781 25.5 119.531 21.6562 110.094 19.7812L105.312 18.8125C100.125 17.7812 97.8125 16.125 97.8125 13.2812V13.25C97.8125 10.0312 100.719 7.8125 105.562 7.78125C110.219 7.78125 113.469 9.9375 113.938 13.4688L113.969 13.8438H122.875L122.844 13.25C122.406 5.34375 116 0.125 105.562 0.125C95.5625 0.125 88.375 5.5625 88.375 13.8125V13.8438C88.375 20.625 92.875 24.875 101.781 26.6562L106.531 27.5938C112.125 28.75 114.344 30.2812 114.344 33.3438V33.375C114.344 36.8125 111.062 39.0938 105.844 39.0938C100.688 39.0938 96.9688 36.9062 96.375 33.4062L96.3125 33.0625H87.4062L87.4375 33.5625C87.9688 41.875 94.875 46.7812 105.594 46.7812ZM125.75 46H135.656L139.062 35.0625H155L158.406 46H168.312L152.594 0.90625H141.5L125.75 46ZM146.938 9.65625H147.125L152.812 28H141.25L146.938 9.65625ZM196.406 46H205.844V8.6875H218.906V0.90625H183.375V8.6875H196.406V46ZM224.125 46H233.562V29.6562H241.125L249.531 46H260.219L250.719 28.25C255.719 26.2812 258.875 21.3438 258.875 15.4062V15.3438C258.875 6.28125 252.875 0.90625 242.75 0.90625H224.125V46ZM233.562 22.5V8.28125H241.594C246.25 8.28125 249.219 11.0312 249.219 15.3438V15.4062C249.219 19.8438 246.406 22.5 241.719 22.5H233.562ZM262.25 46H272.156L275.562 35.0625H291.5L294.906 46H304.812L289.094 0.90625H278L262.25 46ZM283.438 9.65625H283.625L289.312 28H277.75L283.438 9.65625ZM309.438 46H326.656C340.188 46 348.156 37.5938 348.156 23.2812V23.2188C348.156 8.9375 340.156 0.90625 326.656 0.90625H309.438V46ZM318.875 38.1875V8.6875H325.531C333.812 8.6875 338.531 13.8438 338.531 23.25V23.3125C338.531 33.0625 333.969 38.1875 325.531 38.1875H318.875ZM354.25 46H384.125V38.2188H363.688V26.875H382.969V19.5H363.688V8.6875H384.125V0.90625H354.25V46ZM423.688 46.7812C434.594 46.7812 442.5 39.9375 443.375 30.3438L443.406 30H434.219L434.156 30.3125C432.938 35.6562 429.125 38.7812 423.688 38.7812C416.469 38.7812 411.844 32.9062 411.844 23.4062V23.375C411.844 13.9375 416.469 8.125 423.688 8.125C429.312 8.125 433 11.375 434.062 16.3438L434.188 16.875H443.375L443.344 16.5938C442.469 7.03125 434.625 0.125 423.688 0.125C410.531 0.125 402.219 8.875 402.219 23.4062V23.4375C402.219 37.9688 410.5 46.7812 423.688 46.7812ZM469.594 46.7812C483 46.7812 491.344 37.8125 491.344 23.4688V23.4062C491.344 9.09375 482.969 0.125 469.594 0.125C456.25 0.125 447.844 9.0625 447.844 23.4062V23.4688C447.844 37.8125 456.188 46.7812 469.594 46.7812ZM469.594 38.7812C462.188 38.7812 457.469 32.9062 457.469 23.4688V23.4062C457.469 13.9688 462.219 8.125 469.594 8.125C477 8.125 481.719 14 481.719 23.4062V23.4688C481.719 32.8125 477.094 38.7812 469.594 38.7812ZM497.438 46H505.844V15.5H506.094L518.281 46H524.219L536.375 15.5H536.656V46H545.062V0.90625H534.156L521.344 33.3125H521.156L508.344 0.90625H497.438V46ZM552.562 46H562V31.7812H570.688C580.188 31.7812 586.531 25.6562 586.531 16.375V16.3125C586.531 7.03125 580.188 0.90625 570.688 0.90625H552.562V46ZM568.375 8.375C573.781 8.375 576.969 11.2188 576.969 16.3438V16.4062C576.969 21.5312 573.781 24.4062 568.375 24.4062H562V8.375H568.375ZM585 46H594.906L598.312 35.0625H614.25L617.656 46H627.562L611.844 0.90625H600.75L585 46ZM606.188 9.65625H606.375L612.062 28H600.5L606.188 9.65625ZM632.188 46H641.594V16.4688H641.781L662.219 46H670.406V0.90625H661V30.2188H660.812L640.438 0.90625H632.188V46ZM690.75 46H700.188V29.1562L715.906 0.90625H705.688L695.594 20.1562H695.375L685.25 0.90625H675.062L690.75 29.1562V46Z" fill="white"/>
</svg>
