<svg width="32" height="32" viewBox="0 0 32 32" fill="none" xmlns="http://www.w3.org/2000/svg">
<path d="M31.3216 28.7943H24.8954C25.0424 28.4856 25.125 28.1406 25.125 27.7766C25.125 27.3875 25.0303 27.0203 24.8638 26.6958H27.5335C27.9082 26.6958 28.2119 26.392 28.2119 26.0174V23.3036C28.2119 22.929 27.9082 22.6252 27.5335 22.6252H27.0287C27.2451 21.1312 28.7994 10.4132 28.7994 10.4132H30.1229C30.4976 10.4132 30.8014 10.1094 30.8014 9.73475C30.8014 9.36013 30.4976 9.05632 30.1229 9.05632H27.9766L21.4509 2.44082C21.0742 2.059 20.5715 1.84875 20.0352 1.84875C19.4989 1.84875 18.9961 2.059 18.6195 2.44082L15.9976 5.09869C15.3042 4.83194 14.4904 4.967 13.9189 5.504L12.1543 7.16238L10.5991 6.05732C9.91019 5.56782 8.98444 5.56775 8.29537 6.05738L4.075 9.05638H1.87706C1.50238 9.05638 1.19862 9.36019 1.19862 9.73482C1.19862 10.1094 1.50238 10.4133 1.87706 10.4133H3.20112C3.427 11.9722 4.97181 22.6253 4.97181 22.6253H4.4665C4.09181 22.6253 3.78806 22.9291 3.78806 23.3037V26.0174C3.78806 26.3921 4.09181 26.6959 4.4665 26.6959H7.13625C6.96963 27.0203 6.875 27.3875 6.875 27.7766C6.875 28.1406 6.95756 28.4857 7.10456 28.7943H0.678437C0.30375 28.7944 0 29.0981 0 29.4728C0 29.8475 0.30375 30.1513 0.678437 30.1513H31.3216C31.6962 30.1513 32 29.8474 32 29.4728C32 29.0982 31.6962 28.7943 31.3216 28.7943ZM19.5855 3.39369C19.7051 3.27244 19.8648 3.20569 20.0352 3.20569C20.2056 3.20569 20.3652 3.27244 20.4849 3.39369L26.0344 9.01957H20.3834L17.0894 5.924L19.5855 3.39369ZM14.8481 6.49282C15.0907 6.265 15.4708 6.26488 15.7133 6.49282L18.4019 9.01963H12.1593L14.8481 6.49282ZM9.08144 7.16344C9.30031 7.008 9.59444 7.008 9.81319 7.16344L11.1456 8.11026L10.1779 9.01963H6.46925L9.08144 7.16344ZM4.572 10.4132H27.4283L26.8626 14.3143H5.13794C4.94919 13.0139 4.76044 11.7135 4.572 10.4132ZM22.2756 18.7241H26.2233C26.0346 20.0244 25.8458 21.3249 25.6574 22.6252H6.34288L5.77712 18.7241H14.5379C14.9126 18.7241 15.2163 18.4203 15.2163 18.0457C15.2163 17.6711 14.9126 17.3673 14.5379 17.3673H5.58038C5.49838 16.8019 5.41644 16.2366 5.33462 15.6711H26.6656C26.5836 16.2365 26.5017 16.8019 26.4199 17.3673H22.2756C21.9009 17.3673 21.5971 17.6711 21.5971 18.0457C21.5971 18.4203 21.9009 18.7241 22.2756 18.7241ZM5.14488 25.3389V23.9821H26.8551V25.3389H5.14488ZM9.24944 28.7943C8.68831 28.7943 8.23175 28.3378 8.23175 27.7766C8.23175 27.2154 8.68825 26.7589 9.24944 26.7589C9.81062 26.7589 10.2671 27.2154 10.2671 27.7766C10.2671 28.3378 9.81056 28.7943 9.24944 28.7943ZM20.6055 28.7943H11.3944C11.5414 28.4856 11.624 28.1406 11.624 27.7766C11.624 27.3875 11.5293 27.0203 11.3628 26.6958H20.6373C20.4706 27.0203 20.376 27.3874 20.376 27.7766C20.3759 28.1406 20.4585 28.4856 20.6055 28.7943ZM22.7505 28.7943C22.1894 28.7943 21.7328 28.3378 21.7328 27.7766C21.7328 27.2154 22.1893 26.7589 22.7505 26.7589C23.3117 26.7589 23.7682 27.2154 23.7682 27.7766C23.7682 28.3378 23.3116 28.7943 22.7505 28.7943Z" fill="#EF7F1A"/>
<path d="M18.3745 17.3672H18.3066C17.9319 17.3672 17.6282 17.6711 17.6282 18.0457C17.6282 18.4203 17.9319 18.7241 18.3066 18.7241H18.3745C18.7492 18.7241 19.0529 18.4203 19.0529 18.0457C19.0529 17.6711 18.7492 17.3672 18.3745 17.3672Z" fill="#EF7F1A"/>
</svg>
