<svg width="32" height="24" viewBox="0 0 32 24" fill="none" xmlns="http://www.w3.org/2000/svg">
<path d="M31.8501 6.69215L25.6439 0.485877C25.4443 0.286253 25.1208 0.286253 24.9211 0.485877L21.818 3.58898C21.7222 3.6848 21.6684 3.8148 21.6684 3.95036C21.6684 4.08592 21.7222 4.21592 21.818 4.31173L22.1275 4.62129L21.4162 5.33254C20.9544 5.79416 20.2378 5.92016 19.6332 5.64572C19.0663 5.38841 18.4361 5.25247 17.8106 5.25247C17.0679 5.25247 16.3421 5.43891 15.6973 5.79203C15.4283 5.72578 15.1523 5.69185 14.8736 5.69185C14.4705 5.69185 14.0745 5.76141 13.6968 5.89872C13.0936 6.11784 12.447 5.98203 12.0091 5.54422L10.7318 4.26686L10.8839 4.11473C10.9797 4.01892 11.0335 3.88892 11.0335 3.75336C11.0335 3.6178 10.9797 3.4878 10.8839 3.39199L7.78081 0.288878C7.58113 0.0892542 7.25763 0.0892542 7.05801 0.288878L0.149671 7.19721C-0.0498903 7.39684 -0.0498903 7.7204 0.149671 7.91996L3.25272 11.0231C3.34859 11.1189 3.47853 11.1728 3.61415 11.1728C3.74977 11.1728 3.87965 11.1189 3.97559 11.0231L4.16065 10.838L5.06152 11.7389C5.28883 11.9662 5.43952 12.25 5.4972 12.5596C5.79633 14.1647 6.56507 15.624 7.72031 16.7799L7.89 16.9496C7.56413 17.2928 7.38488 17.7399 7.38488 18.2149C7.38488 18.7062 7.57625 19.1681 7.92363 19.5156C8.28225 19.8742 8.75318 20.0535 9.22431 20.0535C9.25499 20.0535 9.28556 20.0526 9.31624 20.0511C9.29137 20.5523 9.46987 21.0617 9.85174 21.4437C10.1992 21.7911 10.6611 21.9824 11.1524 21.9824C11.1661 21.9824 11.1797 21.9818 11.1934 21.9814C11.1829 22.4657 11.3616 22.9534 11.7304 23.3222C12.0778 23.6697 12.5397 23.861 13.0311 23.861C13.5224 23.861 13.9843 23.6696 14.3318 23.3222C14.361 23.293 14.3886 23.2627 14.4155 23.2321C14.5965 23.2952 14.7878 23.3287 14.9813 23.3287C15.4408 23.3287 15.8726 23.1497 16.1963 22.8249C16.3686 22.6526 16.4994 22.45 16.5845 22.2293L16.6368 22.2816C16.9718 22.6166 17.4117 22.7841 17.8516 22.7841C18.2916 22.7841 18.7315 22.6166 19.0664 22.2816C19.2444 22.1036 19.3782 21.8934 19.4629 21.6643C19.7627 21.8823 20.1177 21.9915 20.4728 21.9915C20.9127 21.9915 21.3529 21.8241 21.6882 21.4893C22.0126 21.1648 22.1913 20.7332 22.1913 20.274C22.1913 20.1352 22.1747 19.9991 22.143 19.8676C22.4703 19.8011 22.771 19.6404 23.0124 19.3988C23.3368 19.0743 23.5155 18.6429 23.5155 18.184C23.5155 17.8224 23.4041 17.4782 23.1984 17.1896L23.6084 16.7796C24.7771 15.6104 25.5491 14.1327 25.8412 12.5064C25.8901 12.2341 26.025 11.9812 26.2314 11.7747L27.7563 10.2499L28.0243 10.5179C28.1241 10.6178 28.2549 10.6676 28.3858 10.6676C28.5165 10.6676 28.6474 10.6178 28.7472 10.5179L31.8503 7.41484C31.9461 7.31902 31.9999 7.18903 31.9999 7.05346C31.9999 6.9179 31.9459 6.78803 31.8501 6.69215ZM3.61415 9.93901L1.23379 7.55865L7.41932 1.37312L9.79974 3.75348L3.61415 9.93901ZM9.80218 18.793C9.48362 19.1115 8.96518 19.1116 8.64637 18.793C8.492 18.6385 8.407 18.4333 8.407 18.215C8.407 17.9968 8.49206 17.7915 8.64643 17.6372C8.80575 17.4778 9.01493 17.3982 9.22424 17.3982C9.43349 17.3982 9.64287 17.4778 9.80212 17.6372C10.1207 17.9558 10.1207 18.4743 9.80218 18.793ZM11.7302 20.7209C11.5759 20.8754 11.3707 20.9603 11.1523 20.9603C10.934 20.9603 10.7288 20.8753 10.5745 20.7209C10.2558 20.4023 10.2558 19.8838 10.5745 19.5651C10.7338 19.4058 10.943 19.3261 11.1524 19.3261C11.3615 19.3261 11.5709 19.4058 11.7302 19.5651C12.0489 19.8838 12.0489 20.4023 11.7302 20.7209ZM13.6088 22.5995C13.4544 22.7539 13.2492 22.8389 13.031 22.8389C12.8127 22.8389 12.6074 22.7538 12.4531 22.5995C12.1344 22.2809 12.1344 21.7624 12.4531 21.4437C12.6124 21.2844 12.8216 21.2047 13.031 21.2047C13.2402 21.2047 13.4495 21.2844 13.6088 21.4437C13.9275 21.7624 13.9275 22.2809 13.6088 22.5995ZM22.2892 18.6763C22.1579 18.8078 21.9832 18.8802 21.7974 18.8802C21.6117 18.8802 21.437 18.8078 21.3054 18.676L16.3473 13.719C16.1475 13.5194 15.824 13.5195 15.6245 13.7191C15.425 13.9187 15.425 14.2423 15.6246 14.4419L20.9652 19.782C21.0967 19.9133 21.169 20.0881 21.169 20.274C21.169 20.4602 21.0966 20.6351 20.9654 20.7663C20.6937 21.0378 20.2519 21.0378 19.9807 20.7665L19.0797 19.8655C19.0747 19.8603 19.0698 19.8551 19.0646 19.85C19.0631 19.8485 19.0614 19.8471 19.0599 19.8456L14.9182 15.704C14.7185 15.5044 14.395 15.5044 14.1954 15.704C13.9958 15.9035 13.9958 16.2272 14.1954 16.4267L18.3504 20.5816C18.4774 20.7118 18.5473 20.8841 18.5473 21.0668C18.5473 21.2527 18.4749 21.4274 18.3435 21.5588C18.0724 21.8301 17.6309 21.8301 17.3596 21.5588L12.8543 17.0535C12.6546 16.8538 12.3311 16.8538 12.1315 17.0535C11.9319 17.253 11.9319 17.5767 12.1315 17.7762L15.4711 21.1159C15.472 21.1168 15.4728 21.1179 15.4738 21.1188C15.6051 21.2498 15.6773 21.4243 15.6773 21.6099C15.6773 21.7958 15.605 21.9705 15.473 22.1024C15.3418 22.2339 15.1672 22.3064 14.9811 22.3064C14.9362 22.3064 14.8923 22.3018 14.8493 22.2936C14.932 21.7366 14.7595 21.1486 14.3317 20.7207C13.9842 20.3733 13.5223 20.182 13.031 20.182C13.0173 20.182 13.0037 20.1826 12.99 20.1829C13.0005 19.6986 12.8218 19.211 12.453 18.8421C12.1055 18.4948 11.6437 18.3034 11.1523 18.3034C11.1215 18.3034 11.091 18.3041 11.0605 18.3056C11.085 17.8048 10.9065 17.2958 10.5249 16.914C10.0602 16.4495 9.40712 16.2863 8.80962 16.4236L8.44312 16.0571C7.43438 15.0479 6.76326 13.7737 6.50207 12.3721C6.40638 11.8588 6.1582 11.3898 5.78439 11.0159L4.88346 10.115L10.0091 4.98941L11.2864 6.26678C11.7774 6.75778 12.4459 7.02053 13.1306 7.02053C13.4372 7.02053 13.7473 6.96778 14.046 6.85922C14.1908 6.80653 14.3407 6.76872 14.4925 6.74472L11.328 9.90926C10.9408 10.2964 10.7275 10.8111 10.7275 11.3587C10.7275 11.9062 10.9408 12.4209 11.3279 12.8081C11.7275 13.2077 12.2523 13.4074 12.7773 13.4074C13.3022 13.4074 13.8271 13.2075 14.2268 12.8081L15.8161 11.2187L16.2463 11.6492C16.2465 11.6493 16.2465 11.6494 16.2466 11.6495L16.2645 11.6674L16.2817 11.6846C16.2818 11.6846 16.2819 11.6847 16.282 11.6848L16.2823 11.6851C16.2873 11.69 16.2921 11.6946 16.2969 11.6992L22.2894 17.6918C22.4209 17.8232 22.4932 17.9979 22.4932 18.1838C22.4932 18.37 22.4209 18.5447 22.2892 18.6763ZM25.5084 11.0521C25.1538 11.4068 24.9209 11.8472 24.835 12.3259C24.58 13.7459 23.9058 15.0361 22.8855 16.057L22.4927 16.4498L19.2596 13.2166C19.3298 13.2218 19.4004 13.2252 19.4714 13.2252C19.7988 13.2252 20.1338 13.1679 20.4673 13.0314C20.7286 12.9246 20.8537 12.6261 20.7468 12.3649C20.6399 12.1037 20.3417 11.9786 20.0803 12.0854C18.7649 12.6236 17.1879 11.1404 17.0124 10.9695C17.0094 10.9666 17.0065 10.9638 17.0035 10.9611L16.9854 10.9429C16.9853 10.9429 16.9853 10.9429 16.9852 10.9428L16.9694 10.9271C16.9693 10.927 16.9692 10.9269 16.9691 10.9268L16.5388 10.4963L17.0267 10.0083C17.2264 9.8087 17.2264 9.48514 17.0268 9.28551C16.8271 9.08601 16.5036 9.08595 16.304 9.28551L15.4559 10.1336C15.4556 10.1339 15.4552 10.1343 15.4549 10.1346C15.4546 10.1349 15.4543 10.1353 15.454 10.1356L13.504 12.0856C13.1032 12.4862 12.4513 12.4861 12.0507 12.0856C11.8567 11.8915 11.7498 11.6334 11.7498 11.3589C11.7498 11.0844 11.8567 10.8264 12.0508 10.6323L15.4165 7.26646C15.6038 7.07928 15.8119 6.91459 16.0356 6.77665C16.567 6.44815 17.1808 6.27453 17.8106 6.27453C18.2914 6.27453 18.7756 6.37891 19.2108 6.57647C20.2009 7.02571 21.3777 6.8164 22.139 6.05534L22.8504 5.34404L27.0335 9.52707L25.5084 11.0521ZM28.3856 9.43395L22.9021 3.95048L25.2825 1.57012L30.766 7.05359L28.3856 9.43395Z" fill="#EF7F1A"/>
</svg>
