<svg width="32" height="32" viewBox="0 0 32 32" fill="none" xmlns="http://www.w3.org/2000/svg">
<g clip-path="url(#clip0_3204_4340)">
<path d="M30.1482 17.6015C29.8805 17.5624 29.6318 17.7475 29.5926 18.0151C29.5714 18.1603 29.5475 18.307 29.5217 18.451C29.4739 18.7172 29.6511 18.9718 29.9174 19.0195C29.9466 19.0248 29.9757 19.0272 30.0044 19.0272C30.237 19.0272 30.4434 18.8608 30.4859 18.6238C30.5136 18.4695 30.5392 18.3125 30.5619 18.157C30.6011 17.8893 30.4159 17.6406 30.1482 17.6015Z" fill="#EF7F1A"/>
<path d="M28.9586 21.917C28.7163 21.7965 28.4224 21.8951 28.3019 22.1373C28.1759 22.3902 28.0403 22.6428 27.8987 22.888C27.7634 23.1223 27.8436 23.4218 28.0778 23.5571C28.155 23.6017 28.2393 23.6228 28.3224 23.6228C28.4916 23.6228 28.6563 23.535 28.7469 23.378C28.8986 23.1153 29.0439 22.8447 29.1788 22.5737C29.2993 22.3316 29.2008 22.0376 28.9586 21.917Z" fill="#EF7F1A"/>
<path d="M29.7796 19.601C29.5201 19.5243 29.2476 19.672 29.1707 19.9313C29.0902 20.2024 29.0002 20.4746 28.9029 20.7402C28.81 20.9942 28.9406 21.2755 29.1946 21.3684C29.2502 21.3887 29.307 21.3984 29.3629 21.3984C29.5627 21.3984 29.7503 21.2752 29.8229 21.0768C29.9271 20.7922 30.0236 20.5006 30.1097 20.21C30.1867 19.9507 30.0389 19.678 29.7796 19.601Z" fill="#EF7F1A"/>
<path d="M27.751 24.0569C27.5331 23.8967 27.2265 23.9434 27.0662 24.1613C26.8988 24.3889 26.7218 24.6145 26.5402 24.832C26.3668 25.0397 26.3947 25.3485 26.6023 25.5219C26.6939 25.5985 26.8053 25.6357 26.916 25.6357C27.0561 25.6357 27.1953 25.5759 27.2922 25.4599C27.4867 25.227 27.6761 24.9854 27.8553 24.7417C28.0156 24.5238 27.9689 24.2172 27.751 24.0569Z" fill="#EF7F1A"/>
<path d="M26.1947 25.9587C26.0074 25.7635 25.6973 25.7571 25.5022 25.9444C25.3962 26.0462 25.2874 26.1473 25.1789 26.2451C25.1788 26.2451 25.1787 26.2453 25.1786 26.2453C22.834 28.3564 19.8536 29.5857 16.7193 29.7493L17.1675 29.3293C17.365 29.1444 17.375 28.8344 17.19 28.6371C17.0051 28.4396 16.6952 28.4297 16.4977 28.6145L15.3816 29.6603C15.2207 29.8112 15.1285 30.0228 15.1285 30.2411C15.1285 30.4594 15.2209 30.6711 15.3817 30.8217L16.4977 31.8675C16.5922 31.9561 16.7125 31.9999 16.8325 31.9999C16.9632 31.9999 17.0936 31.9479 17.19 31.845C17.375 31.6477 17.3649 31.3377 17.1676 31.1527L16.7172 30.7306C20.0948 30.5665 23.3086 29.2472 25.834 26.9734C25.8341 26.9733 25.8342 26.9731 25.8344 26.973C25.9506 26.8683 26.067 26.7601 26.1805 26.6512C26.3757 26.4639 26.382 26.1539 26.1947 25.9587Z" fill="#EF7F1A"/>
<path d="M13.9894 29.6223C13.8447 29.601 13.6982 29.5772 13.554 29.5511C13.2878 29.5032 13.0331 29.68 12.9851 29.9462C12.9371 30.2124 13.114 30.4672 13.3802 30.5152C13.5348 30.543 13.692 30.5687 13.8471 30.5916C13.8713 30.5951 13.8952 30.5969 13.9189 30.5969C14.1579 30.5969 14.3671 30.4217 14.4029 30.1782C14.4421 29.9104 14.257 29.6617 13.9894 29.6223Z" fill="#EF7F1A"/>
<path d="M12.076 29.199C11.8051 29.1182 11.5335 29.028 11.2686 28.9306C11.0149 28.8371 10.7332 28.9674 10.6399 29.2213C10.5465 29.4752 10.6767 29.7567 10.9306 29.85C11.2145 29.9544 11.5057 30.0512 11.7962 30.1378C11.8428 30.1517 11.8899 30.1583 11.9362 30.1583C12.1472 30.1583 12.342 30.0209 12.4055 29.8083C12.4827 29.549 12.3353 29.2763 12.076 29.199Z" fill="#EF7F1A"/>
<path d="M7.85559 27.0897C7.62809 26.9215 7.40315 26.7444 7.18696 26.5629C6.97984 26.3892 6.67084 26.416 6.49697 26.6233C6.32303 26.8305 6.35009 27.1394 6.55722 27.3133C6.78878 27.5076 7.02978 27.6975 7.2734 27.8775C7.36096 27.9422 7.46296 27.9734 7.56409 27.9734C7.71415 27.9734 7.86234 27.9047 7.9584 27.7747C8.11915 27.557 8.07308 27.2505 7.85559 27.0897Z" fill="#EF7F1A"/>
<path d="M9.8745 28.3277C9.62175 28.2013 9.36975 28.0654 9.1255 27.9236C8.89151 27.7877 8.59182 27.8674 8.45607 28.1014C8.32032 28.3353 8.39988 28.6351 8.63382 28.7708C8.89557 28.9227 9.16557 29.0685 9.43631 29.2039C9.50663 29.239 9.58144 29.2558 9.655 29.2558C9.83469 29.2558 10.0076 29.1565 10.0934 28.9849C10.2144 28.743 10.1164 28.4487 9.8745 28.3277Z" fill="#EF7F1A"/>
<path d="M6.078 25.5236C5.97625 25.4172 5.87538 25.3082 5.778 25.1996C3.6712 22.85 2.4444 19.8632 2.28077 16.7221L2.69714 17.1684C2.88171 17.3662 3.19158 17.3769 3.38945 17.1924C3.5872 17.0079 3.59795 16.6979 3.41339 16.5001L2.36971 15.3816C2.21902 15.2201 2.00734 15.1274 1.7889 15.1274C1.57046 15.1274 1.35878 15.2201 1.20809 15.3816L0.164346 16.5001C-0.020215 16.6979 -0.00946506 17.0078 0.188284 17.1924C0.282658 17.2806 0.402595 17.3242 0.522344 17.3242C0.653344 17.3242 0.784093 17.2719 0.88053 17.1686L1.29946 16.7196C1.46346 20.1035 2.77983 23.3233 5.04869 25.8536C5.15294 25.9698 5.26094 26.0865 5.36982 26.2004C5.46607 26.3011 5.59488 26.3518 5.72394 26.3518C5.84556 26.3518 5.96738 26.3067 6.06231 26.2161C6.25787 26.0293 6.26487 25.7192 6.078 25.5236Z" fill="#EF7F1A"/>
<path d="M2.08253 12.9805C1.81615 12.9329 1.56172 13.1099 1.51397 13.3762C1.48634 13.5304 1.46072 13.6875 1.43803 13.843C1.39884 14.1107 1.58403 14.3594 1.85172 14.3986C1.87578 14.4021 1.89965 14.4038 1.92322 14.4038C2.16234 14.4038 2.37159 14.2284 2.40728 13.9849C2.42853 13.8397 2.4524 13.6931 2.47821 13.5491C2.52596 13.2828 2.34884 13.0283 2.08253 12.9805Z" fill="#EF7F1A"/>
<path d="M5.39777 6.47817C5.19002 6.30473 4.88121 6.33261 4.7079 6.54023C4.5134 6.77304 4.32397 7.01473 4.14478 7.25835C3.98447 7.47629 4.03122 7.78285 4.24915 7.94316C4.33653 8.00741 4.43822 8.03841 4.53897 8.03841C4.6894 8.03841 4.83796 7.96922 4.93384 7.83879C5.10121 7.61123 5.27821 7.38548 5.45984 7.16804C5.63321 6.96042 5.6054 6.65148 5.39777 6.47817Z" fill="#EF7F1A"/>
<path d="M3.92231 8.44287C3.68806 8.30749 3.38857 8.38774 3.25319 8.62199C3.1015 8.88461 2.95619 9.15524 2.82132 9.42617C2.70076 9.6683 2.79944 9.96242 3.04157 10.083C3.11169 10.1179 3.18607 10.1344 3.25944 10.1344C3.43938 10.1344 3.61263 10.0348 3.69825 9.86267C3.82419 9.60973 3.95981 9.35711 4.10144 9.11192C4.23675 8.87768 4.1565 8.57812 3.92231 8.44287Z" fill="#EF7F1A"/>
<path d="M2.8055 10.6316C2.55138 10.5385 2.27019 10.6692 2.17719 10.9233C2.07307 11.2078 1.97657 11.4995 1.89032 11.7901C1.81332 12.0494 1.96119 12.322 2.2205 12.399C2.267 12.4128 2.31388 12.4193 2.36007 12.4193C2.57125 12.4193 2.76625 12.2816 2.82944 12.0688C2.90987 11.7977 2.99994 11.5255 3.09719 11.2599C3.19006 11.0058 3.0595 10.7245 2.8055 10.6316Z" fill="#EF7F1A"/>
<path d="M16.6185 1.17823L15.5024 0.132423C15.3051 -0.0525758 14.9951 -0.0425133 14.8101 0.154923C14.6251 0.352297 14.6352 0.662295 14.8326 0.847231L15.2832 1.26942C11.9054 1.43348 8.69153 2.75278 6.16611 5.02665C6.16598 5.02677 6.1658 5.02683 6.16567 5.02696C6.04948 5.13164 5.93305 5.23983 5.81961 5.34877C5.62442 5.53608 5.61805 5.84608 5.80536 6.04126C5.90155 6.14145 6.03005 6.19195 6.1588 6.19195C6.2808 6.19195 6.40292 6.1467 6.49786 6.05551C6.60392 5.9537 6.71273 5.85258 6.82123 5.75483C6.82136 5.75477 6.82142 5.75464 6.82148 5.75458C9.16609 3.64353 12.1464 2.41435 15.2807 2.2506L14.8326 2.6706C14.6352 2.85553 14.6251 3.16547 14.8101 3.3629C14.9066 3.46584 15.0369 3.51784 15.1676 3.51784C15.2877 3.51784 15.4079 3.47397 15.5024 3.38547L16.6185 2.3396C16.7794 2.18872 16.8717 1.97716 16.8717 1.75891C16.8717 1.54066 16.7794 1.3291 16.6185 1.17823Z" fill="#EF7F1A"/>
<path d="M31.8117 14.8077C31.614 14.6231 31.3041 14.6338 31.1195 14.8315L30.7005 15.2804C30.5365 11.8966 29.2202 8.6768 26.9514 6.14644C26.8471 6.03025 26.7391 5.91356 26.6303 5.79962C26.4433 5.60406 26.1333 5.59694 25.9378 5.78394C25.7423 5.97075 25.7353 6.28087 25.9221 6.47643C26.0238 6.58287 26.1247 6.69187 26.2221 6.80043C28.3289 9.15004 29.5557 12.1368 29.7192 15.2779L29.3028 14.8316C29.1182 14.6338 28.8083 14.6232 28.6106 14.8077C28.4128 14.9922 28.4021 15.3021 28.5866 15.4999L29.6301 16.6184C29.7809 16.7799 29.9925 16.8726 30.211 16.8726C30.4295 16.8726 30.6412 16.7799 30.7918 16.6185L31.8355 15.5C32.0202 15.3023 32.0095 14.9923 31.8117 14.8077Z" fill="#EF7F1A"/>
<path d="M18.6198 1.48476C18.4646 1.45682 18.3075 1.43119 18.1531 1.40851C17.8851 1.36982 17.6366 1.55432 17.5973 1.82194C17.558 2.08963 17.7431 2.33838 18.0107 2.37775C18.1548 2.39888 18.3014 2.42281 18.4463 2.44894C18.4756 2.45419 18.5048 2.45669 18.5336 2.45669C18.7662 2.45669 18.9725 2.2905 19.0151 2.05356C19.063 1.78732 18.886 1.53263 18.6198 1.48476Z" fill="#EF7F1A"/>
<path d="M23.3664 3.22916C23.1046 3.07729 22.8346 2.93148 22.5639 2.7961C22.3219 2.67523 22.0277 2.77317 21.9067 3.0151C21.7857 3.25698 21.8837 3.55129 22.1257 3.67229C22.3784 3.79866 22.6304 3.9346 22.8746 4.07635C22.952 4.12128 23.0365 4.14266 23.1201 4.14266C23.2889 4.14266 23.4533 4.05522 23.5442 3.89866C23.6799 3.66466 23.6003 3.36491 23.3664 3.22916Z" fill="#EF7F1A"/>
<path d="M25.4428 4.68675C25.2111 4.49225 24.9701 4.3025 24.7267 4.12263C24.5091 3.96188 24.2025 4.00794 24.0417 4.2255C23.881 4.44312 23.927 4.74969 24.1446 4.9105C24.3719 5.0785 24.5968 5.25568 24.8132 5.43718C24.905 5.51424 25.0167 5.55181 25.1278 5.55181C25.2676 5.55181 25.4064 5.49231 25.5033 5.37681C25.6771 5.16956 25.65 4.86068 25.4428 4.68675Z" fill="#EF7F1A"/>
<path d="M21.0694 2.15008C20.7855 2.04564 20.4943 1.94883 20.2039 1.86227C19.9447 1.78502 19.6719 1.93246 19.5946 2.19171C19.5173 2.45095 19.6648 2.7237 19.9241 2.80101C20.195 2.88176 20.4666 2.97208 20.7315 3.06945C20.7872 3.09001 20.8444 3.0997 20.9004 3.0997C21.0999 3.0997 21.2874 2.97695 21.3602 2.77876C21.4535 2.52489 21.3234 2.24339 21.0694 2.15008Z" fill="#EF7F1A"/>
<path d="M27.6129 13.2765C27.5514 13.0132 27.2881 12.8498 27.0245 12.911C26.7611 12.9726 26.5975 13.236 26.659 13.4995C26.8126 14.1565 26.9039 14.8308 26.934 15.5102H24.7085C24.6651 14.0247 24.4243 12.5866 24.0033 11.2542C24.5258 11.063 25.0374 10.8524 25.5365 10.623C25.7078 10.9264 25.8657 11.2394 26.009 11.5621C26.1188 11.8093 26.4081 11.9209 26.6554 11.811C26.9026 11.7011 27.0141 11.4118 26.9043 11.1646C24.9915 6.85751 20.7114 4.07458 16 4.07458C9.42425 4.07458 4.07446 9.4243 4.07446 16C4.07446 22.5759 9.42425 27.9256 16 27.9256C22.5757 27.9256 27.9254 22.5759 27.9254 16.0001C27.9255 15.0804 27.8204 14.1641 27.6129 13.2765ZM25.0125 9.78543C24.5765 9.98236 24.1305 10.1641 23.6757 10.3309C23.2891 9.35124 22.7998 8.44118 22.2145 7.62769C21.8661 7.14332 21.4925 6.70551 21.0979 6.31532C22.6502 7.13282 23.9994 8.31837 25.0125 9.78543ZM23.7286 15.5101H20.4643C20.4482 14.3919 20.3771 13.301 20.2547 12.263C21.2177 12.0902 22.1604 11.8588 23.0742 11.5705C23.4554 12.7843 23.6849 14.1136 23.7286 15.5101ZM22.7463 10.6471C21.8958 10.9138 21.0188 11.1289 20.123 11.2912C19.9223 9.99036 19.6372 8.79212 19.2756 7.75281C18.9573 6.83769 18.5885 6.08195 18.1818 5.49795C20.1334 6.31088 21.7666 8.18519 22.7463 10.6471ZM16.4899 5.18245C17.5636 5.73545 18.6328 8.049 19.1564 11.445C18.2804 11.5649 17.3893 11.6344 16.4899 11.6531V5.18245ZM19.2874 12.4158C19.3995 13.3783 19.4686 14.4141 19.4846 15.5101H16.4899V12.6328C17.4332 12.614 18.3681 12.5415 19.2874 12.4158ZM16.4899 16.4897H19.4846C19.4686 17.5858 19.3994 18.6217 19.2874 19.5843C18.3681 19.4586 17.4331 19.386 16.4899 19.3672V16.4897ZM15.5103 5.18245V11.653C14.6108 11.6344 13.7196 11.5648 12.8436 11.445C13.3673 8.04894 14.4365 5.73539 15.5103 5.18245ZM12.5154 15.5101C12.5314 14.414 12.6005 13.3782 12.7125 12.4157C13.6319 12.5415 14.5669 12.614 15.5103 12.6328V15.5101H12.5154ZM15.5103 16.4897V19.3671C14.5669 19.3859 13.632 19.4585 12.7126 19.5842C12.6005 18.6216 12.5314 17.5858 12.5154 16.4896H15.5103V16.4897ZM13.8182 5.49801C13.4115 6.08201 13.0427 6.83776 12.7243 7.75281C12.3628 8.79206 12.0777 9.9903 11.877 11.2912C10.9812 11.1289 10.1042 10.9139 9.25387 10.6471C10.2336 8.18525 11.8666 6.31095 13.8182 5.49801ZM10.9062 16.4898H11.5357C11.5518 17.608 11.6229 18.6989 11.7452 19.7372C10.7823 19.9099 9.83974 20.1414 8.92593 20.4296C8.54475 19.2157 8.31525 17.8865 8.2715 16.4898H8.947C9.2175 16.4898 9.43681 16.2706 9.43681 16C9.43681 15.7294 9.2175 15.5101 8.947 15.5101H8.27156C8.31525 14.1135 8.54475 12.7843 8.92593 11.5705C9.83974 11.8587 10.7823 12.0902 11.7453 12.263C11.6229 13.3011 11.5519 14.392 11.5358 15.5101H10.9062C10.6357 15.5101 10.4164 15.7294 10.4164 16C10.4164 16.2705 10.6357 16.4898 10.9062 16.4898ZM10.9004 6.31713C10.5065 6.70688 10.1334 7.14407 9.78555 7.62769C9.20037 8.44118 8.71106 9.35124 8.32438 10.3309C7.8715 10.1648 7.42719 9.9838 6.99295 9.78793C7.9945 8.34006 9.33562 7.14463 10.9004 6.31713ZM6.46789 10.6247C6.96563 10.8534 7.47582 11.0634 7.99688 11.2541C7.57588 12.5865 7.33507 14.0247 7.29163 15.5101H5.06571C5.14396 13.741 5.64408 12.0799 6.46789 10.6247ZM5.06571 16.4897H7.29163C7.33513 17.9753 7.57582 19.4134 7.99694 20.7459C7.47588 20.9365 6.9657 21.1465 6.46795 21.3752C5.64408 19.9201 5.14396 18.2589 5.06571 16.4897ZM6.99295 22.212C7.42732 22.016 7.87157 21.8352 8.32444 21.6691C8.71106 22.6487 9.20037 23.5587 9.78555 24.3722C10.1335 24.8559 10.5066 25.2931 10.9005 25.6828C9.33562 24.8553 7.99456 23.6598 6.99295 22.212ZM9.25387 21.3529C10.1044 21.0862 10.9813 20.8711 11.877 20.7088C12.0777 22.0097 12.3628 23.2078 12.7243 24.2472C13.0427 25.1623 13.4115 25.918 13.8182 26.502C11.8667 25.689 10.2336 23.8147 9.25387 21.3529ZM16.4899 26.8175V24.2938C16.4899 24.0232 16.2706 23.804 16.0001 23.804C15.7296 23.804 15.5103 24.0232 15.5103 24.2938V26.8175C14.4365 26.2646 13.3673 23.951 12.8436 20.5549C13.7196 20.4351 14.6108 20.3655 15.5103 20.3469V22.2693C15.5103 22.5399 15.7296 22.7591 16.0001 22.7591C16.2706 22.7591 16.4899 22.5399 16.4899 22.2693V20.3468C17.3893 20.3654 18.2804 20.4351 19.1564 20.5548C18.6328 23.9509 17.5636 26.2645 16.4899 26.8175ZM18.1841 26.4988C18.5899 25.9153 18.958 25.1605 19.2757 24.2472C19.6372 23.2079 19.9224 22.0097 20.1231 20.7087C21.0191 20.8711 21.8962 21.0863 22.747 21.3531C21.7536 23.8534 20.1066 25.695 18.1841 26.4988ZM21.0912 25.6873C22.1519 24.6457 23.0408 23.2787 23.6747 21.6687C24.1279 21.8348 24.5725 22.0159 25.0072 22.212C24.0038 23.6624 22.6597 24.8597 21.0912 25.6873ZM25.5323 21.3751C25.034 21.1464 24.5233 20.9362 24.0018 20.7454C24.095 20.4503 24.18 20.1485 24.2563 19.8402C24.3213 19.5776 24.1612 19.3121 23.8986 19.2471C23.6359 19.1822 23.3705 19.3422 23.3055 19.6048C23.2359 19.8858 23.1587 20.1607 23.0744 20.4296C22.1604 20.1414 21.2178 19.9099 20.2548 19.7371C20.3772 18.6989 20.4482 17.608 20.4643 16.4897H23.7282C23.716 16.8778 23.6902 17.265 23.6494 17.6457C23.6207 17.9146 23.8153 18.1561 24.0843 18.1849C24.353 18.2137 24.5947 18.019 24.6235 17.7501C24.668 17.3349 24.696 16.9128 24.7085 16.4897H26.9345C26.8561 18.2589 26.356 19.92 25.5323 21.3751Z" fill="#EF7F1A"/>
</g>
<defs>
<clipPath id="clip0_3204_4340">
<rect width="32" height="32" fill="white"/>
</clipPath>
</defs>
</svg>
